<svg width="27" height="26" viewBox="0 0 27 26" fill="none" xmlns="http://www.w3.org/2000/svg">
<g clip-path="url(#clip0_31_34)">
<path d="M24.511 15.3436L24.7828 15.8695L24.511 15.3447V15.3436ZM23.5419 15.5244L23.4828 14.937L23.465 14.9382L23.445 14.9417L23.5419 15.5244ZM23.5419 15.5244L23.601 16.1129L23.621 16.1106L23.64 16.107L23.5419 15.5244ZM18.7673 22.0031L19.142 21.5457L19.136 21.5422L18.7673 22.0031ZM18.7673 22.0031L18.3927 22.4605L18.3986 22.4652L18.7673 22.0031ZM10.9898 24.1777L11.5145 23.907L10.9886 24.1788L10.9898 24.1777ZM7.89932 22.0031L7.52468 21.5469L7.51641 21.554L7.50695 21.5623L7.89932 22.0031ZM7.89932 22.0031L8.27395 22.4617L8.28341 22.4534L8.29168 22.4463L7.89932 22.0031ZM1.59904 14.729L1.04832 14.9465L1.59786 14.729H1.59904ZM1.59904 11.271L1.04832 11.0536L1.59786 11.271H1.59904ZM2.1545 10.6565L1.88386 10.1306L2.15568 10.6553L2.1545 10.6565ZM3.12359 10.4756V9.88474H3.09522L3.06568 9.8871L3.12359 10.4756ZM3.12359 10.4756V11.0666H3.15313L3.18268 11.063L3.12359 10.4756ZM10.4603 4.50983L9.98877 4.15174L10.4591 4.50983H10.4603ZM16.4439 2.73119C16.4261 2.51691 16.4013 2.30328 16.3694 2.09065C16.3424 1.9025 16.2857 1.71982 16.2016 1.54937L15.151 2.09183C15.1628 2.11547 15.1829 2.16274 15.203 2.28565C15.2254 2.41565 15.242 2.58465 15.2691 2.84819L16.445 2.73001L16.4439 2.73119ZM16.6755 4.15292C16.6613 4.13519 16.6188 4.0631 16.5727 3.81019C16.5177 3.45211 16.4763 3.09223 16.4462 2.73119L15.2691 2.84819C15.3164 3.3221 15.3554 3.71447 15.4098 4.01938C15.463 4.31719 15.5457 4.62092 15.736 4.87028L16.6755 4.15292ZM17.2239 4.37983C17.1206 4.39373 17.0154 4.38006 16.9191 4.34021C16.8228 4.30036 16.7388 4.23574 16.6755 4.15292L15.7348 4.8691C15.9246 5.11797 16.1768 5.31217 16.466 5.43194C16.7552 5.55171 17.0709 5.59279 17.381 5.55101L17.2239 4.37983ZM18.3915 3.53719C18.0074 3.85274 17.745 4.06665 17.5382 4.20965C17.3267 4.35619 17.2451 4.37628 17.2239 4.37983L17.381 5.55101C17.6907 5.50965 17.9637 5.35365 18.213 5.17992C18.4671 5.00265 18.7709 4.75447 19.1408 4.45192L18.3915 3.53719ZM19.3984 2.87419C19.2093 2.93447 19.0498 3.03019 18.8985 3.13774C18.752 3.24174 18.5853 3.37883 18.3915 3.53719L19.1408 4.45192C19.3452 4.2841 19.4776 4.17656 19.584 4.10092C19.6368 4.05837 19.6957 4.0241 19.7589 3.99928L19.3984 2.87419ZM20.6429 2.93565C20.2491 2.76526 19.807 2.74342 19.3984 2.87419L19.7589 3.99928C19.8948 3.95624 20.0417 3.96379 20.1725 4.02056L20.6429 2.93565ZM21.5789 3.69674C21.4016 3.51947 21.2491 3.36583 21.1144 3.24765C20.9746 3.11947 20.8155 3.01417 20.6429 2.93565L20.1725 4.02056C20.1973 4.03119 20.2422 4.05601 20.3368 4.13874C20.4349 4.22383 20.5554 4.34438 20.7433 4.53228L21.5789 3.69674ZM22.6342 4.7521L21.5789 3.69674L20.7433 4.53228L21.7987 5.58765L22.6342 4.7521ZM23.3953 5.6881C23.3164 5.51542 23.2107 5.35629 23.0821 5.21656C22.964 5.08183 22.8103 4.92938 22.6342 4.7521L21.7987 5.58765C21.9866 5.77556 22.106 5.8961 22.1934 5.99419C22.2761 6.08874 22.2998 6.13365 22.3104 6.15847L23.3953 5.6881ZM23.4568 6.93256C23.5875 6.52397 23.5657 6.08182 23.3953 5.6881L22.3104 6.15847C22.3668 6.28941 22.3739 6.43631 22.3305 6.5721L23.4568 6.93256ZM22.7938 7.93947C22.9521 7.74565 23.0892 7.57901 23.1932 7.43247C23.2996 7.28119 23.3965 7.12165 23.4568 6.93256L22.3305 6.5721C22.3061 6.63516 22.2722 6.69413 22.23 6.74701C22.1175 6.89819 22.0004 7.04598 21.879 7.19019L22.7938 7.93947ZM21.9511 9.1071C21.9547 9.08583 21.9748 9.00428 22.1213 8.79274C22.2643 8.58592 22.4782 8.32356 22.7938 7.93947L21.879 7.19019C21.5765 7.5601 21.3271 7.86383 21.151 8.11792C20.9773 8.3661 20.8213 8.64028 20.78 8.94992L21.9511 9.1071ZM22.178 9.65547C22.0952 9.59219 22.0306 9.50814 21.9908 9.41184C21.9509 9.31553 21.9372 9.2104 21.9511 9.1071L20.78 8.94992C20.7384 9.25991 20.7796 9.57538 20.8993 9.86431C21.0191 10.1532 21.2132 10.4053 21.4619 10.595L22.178 9.65547ZM23.5998 9.88592C23.1046 9.83628 22.769 9.80319 22.5208 9.75828C22.2679 9.71219 22.1958 9.66965 22.178 9.65547L21.4619 10.595C21.71 10.7841 22.0138 10.8668 22.3128 10.9212C22.6165 10.9756 23.0077 11.0157 23.4828 11.063L23.5998 9.88592ZM24.7816 10.1294C24.6111 10.0452 24.4285 9.9886 24.2403 9.96156C24.063 9.93201 23.848 9.91074 23.5998 9.88592L23.4816 11.0618C23.7463 11.089 23.9153 11.1056 24.0453 11.128C24.1122 11.1355 24.1775 11.1531 24.2391 11.18L24.7816 10.1282V10.1294ZM25.6171 11.0524C25.4594 10.6538 25.1625 10.3259 24.7816 10.1294L24.2391 11.18C24.3662 11.2453 24.4653 11.3545 24.518 11.4873L25.6171 11.0524ZM25.7412 12.2519C25.7412 12.0026 25.7412 11.7863 25.7294 11.6066C25.7214 11.4171 25.6835 11.2301 25.6171 11.0524L24.518 11.4873C24.5275 11.5121 24.5417 11.5617 24.5499 11.6858C24.5592 11.8748 24.5623 12.064 24.5594 12.2531H25.7412V12.2519ZM25.7412 13.7457V12.2519H24.5594V13.7457H25.7412ZM25.6171 14.9441C25.6904 14.7597 25.7176 14.5754 25.7294 14.3898C25.7412 14.2114 25.7412 13.9951 25.7412 13.7457H24.5594C24.5594 14.0105 24.5594 14.1806 24.5499 14.3118C24.5494 14.3792 24.5386 14.4462 24.518 14.5104L25.6171 14.9441ZM24.7816 15.8683C25.1627 15.6715 25.4596 15.3431 25.6171 14.9441L24.518 14.5104C24.4653 14.6431 24.3662 14.7523 24.2391 14.8176L24.7828 15.8695L24.7816 15.8683ZM23.5998 16.1117C23.848 16.0869 24.0642 16.0645 24.2403 16.0349C24.4235 16.0054 24.6043 15.9593 24.7804 15.8695L24.2391 14.8176C24.1775 14.8446 24.1122 14.8622 24.0453 14.8696C23.9153 14.8921 23.7463 14.9086 23.4828 14.9358L23.601 16.1129L23.5998 16.1117ZM22.1792 16.3422C22.197 16.328 22.269 16.2843 22.5219 16.2394C22.7701 16.1945 23.1058 16.1602 23.5998 16.1117L23.4828 14.9358C23.0089 14.9831 22.6165 15.0209 22.3116 15.0765C22.0138 15.1296 21.7112 15.2124 21.4619 15.4015L22.1792 16.3422ZM21.9511 16.8906C21.9374 16.7872 21.9512 16.682 21.9913 16.5856C22.0313 16.4893 22.0962 16.4053 22.1792 16.3422L21.4619 15.4015C21.213 15.5913 21.0188 15.8435 20.899 16.1327C20.7793 16.4219 20.7382 16.7376 20.78 17.0477L21.9511 16.8906ZM22.7938 18.0582C22.5599 17.7816 22.3356 17.497 22.1213 17.2049C21.9748 16.9946 21.9547 16.9118 21.9511 16.8906L20.7811 17.0489C20.8225 17.3586 20.9785 17.6304 21.151 17.8797C21.3283 18.1326 21.5765 18.4376 21.879 18.8063L22.7938 18.0582ZM23.4568 19.0651C23.3958 18.8853 23.3069 18.7161 23.1932 18.564C23.0654 18.3913 22.9322 18.2226 22.7938 18.0582L21.879 18.8063C22.0469 19.0119 22.1544 19.1431 22.23 19.2506C22.2721 19.3032 22.3059 19.3618 22.3305 19.4244L23.4568 19.0651ZM23.3953 20.3096C23.5657 19.9158 23.5875 19.4737 23.4568 19.0651L22.3305 19.4244C22.3742 19.5605 22.3671 19.7079 22.3104 19.8392L23.3953 20.3096ZM22.6354 21.2444C22.8115 21.0683 22.964 20.9158 23.0821 20.7811C23.205 20.6405 23.3161 20.4927 23.3953 20.3096L22.3104 19.8392C22.2795 19.8992 22.2396 19.9542 22.1922 20.0023C22.0651 20.1417 21.9339 20.2773 21.7987 20.4088L22.6354 21.2444ZM21.5789 22.3009L22.6354 21.2444L21.7987 20.4088L20.7433 21.4654L21.5789 22.3009ZM20.6429 23.0608C20.8249 22.9816 20.9738 22.8717 21.1144 22.7488C21.2491 22.6306 21.4016 22.477 21.5789 22.2997L20.7433 21.4654C20.5554 21.6533 20.4349 21.7726 20.3368 21.8589C20.2883 21.9064 20.2329 21.9462 20.1725 21.9771L20.6429 23.0608ZM19.3984 23.1235C19.8071 23.2539 20.2493 23.2316 20.6429 23.0608L20.1725 21.9771C20.0416 22.0335 19.8946 22.0406 19.7589 21.9972L19.3984 23.1235ZM18.3915 22.4593C18.5853 22.6176 18.752 22.7547 18.8985 22.8587C19.0498 22.9663 19.2093 23.0632 19.3984 23.1235L19.7589 21.9972C19.6958 21.9728 19.6368 21.9389 19.584 21.8967C19.4328 21.7838 19.285 21.6663 19.1408 21.5446L18.3915 22.4593ZM17.2239 21.6178C17.2451 21.6202 17.3279 21.6415 17.5382 21.788C17.745 21.931 18.0074 22.1449 18.3915 22.4593L19.1408 21.5446C18.7709 21.2432 18.4671 20.9938 18.213 20.8166C17.9649 20.644 17.6907 20.488 17.381 20.4466L17.2239 21.6178ZM16.6755 21.8447C16.7388 21.7619 16.8228 21.6973 16.9191 21.6575C17.0154 21.6176 17.1206 21.6039 17.2239 21.6178L17.381 20.4466C17.0712 20.405 16.7558 20.446 16.4668 20.5655C16.1779 20.6851 15.9258 20.8789 15.736 21.1274L16.6755 21.8447ZM16.445 23.2665C16.4947 22.7713 16.5278 22.4356 16.5727 22.1875C16.6188 21.9346 16.6613 21.8625 16.6755 21.8447L15.736 21.1274C15.5469 21.3756 15.4641 21.6805 15.4098 21.9783C15.3554 22.282 15.3152 22.6732 15.268 23.1483L16.445 23.2665ZM16.2016 24.4483C16.2926 24.271 16.3375 24.0902 16.3682 23.907C16.399 23.7297 16.4202 23.5147 16.445 23.2665L15.268 23.1483C15.2515 23.3368 15.2307 23.5248 15.203 23.712C15.1954 23.7789 15.1779 23.8442 15.151 23.9058L16.2028 24.4483H16.2016ZM15.2786 25.2838C15.6772 25.1261 16.0051 24.8292 16.2016 24.4483L15.151 23.9058C15.0856 24.0329 14.9765 24.132 14.8437 24.1847L15.2786 25.2838ZM14.079 25.4079C14.3284 25.4079 14.5447 25.4079 14.7243 25.3961C14.9087 25.3843 15.0942 25.3571 15.2786 25.2838L14.8437 24.1847C14.7795 24.2053 14.7125 24.2161 14.6451 24.2166C14.5151 24.2261 14.3438 24.2261 14.0779 24.2261L14.079 25.4079ZM12.5852 25.4079H14.079L14.0779 24.2261H12.5852V25.4079ZM11.3857 25.2838C11.5712 25.3571 11.7556 25.3843 11.9411 25.3961C12.1196 25.4079 12.3359 25.4079 12.5852 25.4079V24.2261C12.3205 24.2261 12.1503 24.2261 12.0191 24.2166C11.9517 24.216 11.8848 24.2053 11.8206 24.1847L11.3857 25.2838ZM10.4627 24.4483C10.6592 24.8292 10.9871 25.1261 11.3857 25.2838L11.8206 24.1847C11.6878 24.132 11.5787 24.0329 11.5133 23.9058L10.4615 24.4483H10.4627ZM10.2192 23.2665C10.244 23.5147 10.2665 23.7309 10.2949 23.907C10.3256 24.0902 10.3717 24.271 10.4627 24.4483L11.5133 23.9058C11.4864 23.8442 11.4688 23.7789 11.4613 23.712C11.4336 23.5252 11.4116 23.3376 11.3951 23.1495L10.2192 23.2665ZM9.98877 21.8447C10.003 21.8625 10.0455 21.9346 10.0916 22.1875C10.1365 22.4356 10.1696 22.7725 10.2192 23.2665L11.3951 23.1495C11.3479 22.6756 11.3089 22.2832 11.2545 21.9783C11.2013 21.6805 11.1186 21.3767 10.9283 21.1274L9.98877 21.8447ZM9.44041 21.6178C9.5437 21.6039 9.64883 21.6176 9.74514 21.6575C9.84144 21.6973 9.9255 21.7619 9.98877 21.8447L10.9283 21.1274C10.7386 20.8787 10.4865 20.6858 10.1976 20.566C9.90868 20.4463 9.59321 20.4051 9.28322 20.4466L9.44041 21.6178ZM8.27277 22.4605C8.65686 22.1449 8.91922 21.931 9.12604 21.788C9.33759 21.6415 9.41913 21.6202 9.44041 21.6178L9.28322 20.4466C8.97359 20.488 8.70059 20.644 8.45122 20.8177C8.19713 20.9938 7.89341 21.2432 7.5235 21.5457L8.27277 22.4605ZM7.26586 23.1235C7.45495 23.0632 7.6145 22.9675 7.76577 22.8599C7.91232 22.7559 8.07895 22.6188 8.27277 22.4605L7.5235 21.5457C7.37928 21.6671 7.23149 21.7842 7.08032 21.8967C7.02746 21.9389 6.96848 21.9728 6.90541 21.9972L7.26586 23.1235ZM6.02141 23.0632C6.41512 23.2336 6.85727 23.2542 7.26586 23.1235L6.90541 21.9972C6.76962 22.0406 6.62271 22.0335 6.49177 21.9771L6.02141 23.0632ZM5.08541 22.3009C5.26268 22.4782 5.41513 22.6318 5.54986 22.75C5.68932 22.8717 5.83941 22.984 6.02141 23.0632L6.49177 21.9771C6.43133 21.9463 6.37593 21.9064 6.3275 21.8589C6.18812 21.7318 6.05255 21.6005 5.92095 21.4654L5.08541 22.3009ZM4.03004 21.2456L5.08541 22.3009L5.92095 21.4654L4.86559 20.41L4.03004 21.2456ZM3.26895 20.3096C3.34813 20.4916 3.45922 20.6405 3.58213 20.7811C3.70032 20.9158 3.85395 21.0683 4.03004 21.2456L4.86559 20.41C4.73002 20.2784 4.59838 20.1429 4.47086 20.0035C4.42338 19.955 4.38353 19.8996 4.35268 19.8392L3.26895 20.3096ZM3.2075 19.0651C3.07673 19.4737 3.09856 19.9158 3.26895 20.3096L4.35268 19.8392C4.29592 19.7084 4.28954 19.5615 4.33259 19.4256L3.2075 19.0651ZM3.8705 18.0582C3.71213 18.252 3.57504 18.4186 3.47104 18.5652C3.3575 18.717 3.26857 18.8857 3.2075 19.0651L4.33259 19.4256C4.3574 19.3624 4.39167 19.3035 4.43422 19.2506C4.50986 19.1443 4.61741 19.0119 4.78522 18.8075L3.8705 18.0582ZM4.71313 16.8906C4.70959 16.9118 4.6895 16.9934 4.54295 17.2049C4.39877 17.4117 4.18604 17.6741 3.8705 18.0582L4.78522 18.8075C5.08777 18.4376 5.33713 18.1338 5.51322 17.8797C5.68695 17.6316 5.84295 17.3574 5.88432 17.0477L4.71313 16.8906ZM4.48622 16.3422C4.56905 16.4055 4.63366 16.4895 4.67351 16.5858C4.71336 16.6821 4.72703 16.7873 4.71313 16.8906L5.88432 17.0477C5.9261 16.7376 5.88501 16.4219 5.76524 16.1327C5.64547 15.8435 5.45128 15.5913 5.20241 15.4015L4.48622 16.3422ZM3.0645 16.1129C3.55968 16.1614 3.89532 16.1945 4.1435 16.2394C4.39641 16.2855 4.4685 16.328 4.48622 16.3422L5.20241 15.4015C4.95422 15.2124 4.6505 15.1296 4.3515 15.0765C4.04777 15.0221 3.65659 14.9819 3.1815 14.9346L3.06332 16.1117L3.0645 16.1129ZM1.88268 15.8683C2.05995 15.9593 2.24077 16.0042 2.42395 16.0349C2.60122 16.0656 2.81513 16.0881 3.0645 16.1129L3.18268 14.9358C2.99415 14.9194 2.80615 14.8974 2.61895 14.8696C2.55211 14.8621 2.48677 14.8446 2.42513 14.8176L1.88268 15.8695V15.8683ZM1.04713 14.9441C1.20466 15.3431 1.50152 15.6715 1.88268 15.8683L2.42513 14.8176C2.29807 14.7523 2.19899 14.6431 2.14622 14.5104L1.04713 14.9441ZM0.924225 13.7481C0.924225 13.9975 0.924225 14.2137 0.936043 14.3934C0.943692 14.5826 0.981596 14.7693 1.04832 14.9465L2.14741 14.5127C2.12686 14.4485 2.1161 14.3816 2.1155 14.3142C2.10671 14.1252 2.10356 13.9361 2.10604 13.7469H0.924225V13.7481ZM0.924225 12.2543V13.7481H2.10604V12.2543H0.924225ZM1.04832 11.0547C0.981854 11.2328 0.943962 11.4203 0.936043 11.6102C0.924225 11.7886 0.924225 12.0049 0.924225 12.2543H2.10604C2.10604 11.9896 2.10604 11.8194 2.1155 11.6882C2.11607 11.6208 2.12683 11.5538 2.14741 11.4896L1.04832 11.0547ZM1.88386 10.1317C1.50291 10.3283 1.20608 10.6562 1.04832 11.0547L2.14741 11.4896C2.20017 11.3569 2.29926 11.2477 2.42632 11.1824L1.88386 10.1306V10.1317ZM3.06568 9.8871C2.8175 9.91192 2.60122 9.93556 2.42513 9.96392C2.23699 9.99097 2.05431 10.0476 1.88386 10.1317L2.42632 11.1824C2.44995 11.1706 2.49722 11.1505 2.62013 11.1304C2.75013 11.1079 2.91913 11.0914 3.18268 11.0642L3.0645 9.88828L3.06568 9.8871ZM4.48741 9.65783C4.46968 9.67201 4.39759 9.71456 4.14468 9.76065C3.8965 9.80556 3.56086 9.83747 3.06568 9.8871L3.18268 11.0642C3.65659 11.0169 4.05013 10.9779 4.35386 10.9236C4.65286 10.8704 4.95659 10.7876 5.20477 10.5974L4.48741 9.65783ZM4.71432 9.10947C4.72821 9.21276 4.71454 9.31789 4.67469 9.4142C4.63484 9.5105 4.57023 9.59456 4.48741 9.65783L5.20477 10.5974C5.45324 10.4076 5.64708 10.1554 5.76663 9.86648C5.88618 9.57757 5.92719 9.26099 5.8855 8.9511L4.7155 9.10947H4.71432ZM3.87168 7.94065C4.18722 8.32592 4.40113 8.58828 4.54532 8.7951C4.69186 9.00665 4.71077 9.08819 4.71432 9.10947L5.8855 8.9511C5.84413 8.64147 5.68813 8.36965 5.51441 8.12028C5.33832 7.86619 5.08895 7.56247 4.78641 7.19256L3.87168 7.94065ZM3.20868 6.93374C3.26777 7.12283 3.36468 7.28356 3.47222 7.43483C3.57622 7.58019 3.71332 7.74801 3.87168 7.94065L4.78641 7.19256C4.66503 7.04795 4.54797 6.89976 4.43541 6.74819C4.39296 6.69574 4.35869 6.63717 4.33377 6.57447L3.20868 6.93374ZM3.27013 5.69047C3.10004 6.08384 3.0782 6.52551 3.20868 6.93374L4.33377 6.57447C4.29073 6.43854 4.29828 6.29163 4.35504 6.16083L3.27013 5.69047ZM4.03122 4.75447C3.85395 4.93056 3.70032 5.08301 3.58213 5.21892C3.45397 5.35871 3.34868 5.51785 3.27013 5.69047L4.35504 6.16083C4.38598 6.10081 4.42582 6.04464 4.47322 5.99656C4.59983 5.85669 4.73109 5.7211 4.86677 5.59001L4.03122 4.75447ZM5.08659 3.69792L4.03122 4.75447L4.86677 5.59001L5.92213 4.53347L5.08659 3.69792ZM6.02259 2.93801C5.85002 3.01664 5.69089 3.12193 5.55104 3.25001C5.41632 3.36819 5.26268 3.52065 5.08659 3.69792L5.92213 4.53347C6.11004 4.34674 6.23059 4.22619 6.32868 4.13992C6.42322 4.05719 6.46813 4.03356 6.49295 4.02174L6.02259 2.93801ZM7.26704 2.87538C6.85831 2.74498 6.41616 2.76723 6.02259 2.93801L6.49295 4.02174C6.62375 3.96498 6.77066 3.9586 6.90659 4.00165L7.26704 2.87538ZM8.27395 3.53956C8.08013 3.38119 7.9135 3.2441 7.76695 3.1401C7.61529 3.0261 7.44658 2.93675 7.26704 2.87538L6.90659 4.00165C6.96963 4.0261 7.02861 4.05997 7.0815 4.1021C7.18786 4.17892 7.32022 4.28647 7.52586 4.45428L8.27395 3.53956ZM9.44159 4.38219C9.42031 4.37865 9.33877 4.35856 9.12722 4.21201C8.83514 3.99735 8.55054 3.77385 8.27395 3.53956L7.52586 4.45428C7.89459 4.75683 8.1995 5.00619 8.45241 5.18228C8.70059 5.35483 8.97477 5.51083 9.28441 5.55337L9.44159 4.38219ZM9.98995 4.1541C9.92682 4.23714 9.84282 4.30198 9.74651 4.34205C9.65019 4.38211 9.54499 4.39596 9.44159 4.38219L9.28441 5.55337C9.59448 5.59529 9.91012 5.55321 10.1993 5.43364C10.4884 5.31408 10.7408 5.12012 10.9307 4.87147L9.98995 4.1541ZM10.2204 2.73356C10.1708 3.22756 10.1377 3.56437 10.0928 3.81137C10.0467 4.06428 10.0041 4.13637 9.98995 4.1541L10.9307 4.87147C11.1198 4.62328 11.2025 4.31956 11.2557 4.02056C11.31 3.71683 11.3502 3.32565 11.3975 2.85056L10.2204 2.73356ZM10.4639 1.55174C10.3729 1.72901 10.3268 1.90983 10.296 2.09301C10.2665 2.27028 10.2452 2.48419 10.2204 2.73356L11.3963 2.85174C11.4127 2.66321 11.4348 2.47521 11.4625 2.28801C11.4699 2.22115 11.4875 2.1558 11.5145 2.09419L10.4627 1.55292L10.4639 1.55174ZM11.388 0.716193C10.9888 0.874007 10.6605 1.17013 10.4639 1.55174L11.5145 2.09419C11.5798 1.96713 11.689 1.86805 11.8218 1.81528L11.388 0.716193ZM12.5864 0.592102C12.337 0.592102 12.1208 0.592102 11.9411 0.60392C11.752 0.611569 11.5652 0.649473 11.388 0.716193L11.8218 1.81528C11.886 1.7947 11.9529 1.78395 12.0203 1.78337C12.1503 1.77392 12.3217 1.77392 12.5876 1.77392V0.592102H12.5864ZM14.0802 0.592102H12.5864V1.77392H14.0802V0.592102ZM15.2786 0.716193C15.1013 0.649956 14.9146 0.612067 14.7255 0.60392C14.5459 0.592102 14.3296 0.592102 14.0802 0.592102V1.77392C14.345 1.77392 14.5151 1.77392 14.6463 1.78337C14.7137 1.78433 14.7806 1.79508 14.8449 1.81528L15.2786 0.716193ZM16.2028 1.55174C16.006 1.17058 15.6776 0.873714 15.2786 0.716193L14.8449 1.81528C14.9776 1.86805 15.0868 1.96713 15.1521 2.09419L16.2028 1.55174ZM17.4697 13C17.4697 14.097 17.0339 15.1491 16.2582 15.9249C15.4824 16.7006 14.4303 17.1364 13.3333 17.1364V18.3182C14.7438 18.3182 16.0965 17.7579 17.0938 16.7605C18.0912 15.7632 18.6515 14.4105 18.6515 13H17.4697ZM13.3333 8.86365C14.4303 8.86365 15.4824 9.29944 16.2582 10.0752C17.0339 10.8509 17.4697 11.903 17.4697 13H18.6515C18.6515 11.5895 18.0912 10.2368 17.0938 9.23949C16.0965 8.24214 14.7438 7.68183 13.3333 7.68183V8.86365ZM9.19695 13C9.19695 11.903 9.63275 10.8509 10.4085 10.0752C11.1842 9.29944 12.2363 8.86365 13.3333 8.86365V7.68183C11.9228 7.68183 10.5701 8.24214 9.57279 9.23949C8.57544 10.2368 8.01513 11.5895 8.01513 13H9.19695ZM13.3333 17.1364C12.2363 17.1364 11.1842 16.7006 10.4085 15.9249C9.63275 15.1491 9.19695 14.097 9.19695 13H8.01513C8.01513 14.4105 8.57544 15.7632 9.57279 16.7605C10.5701 17.7579 11.9228 18.3182 13.3333 18.3182V17.1364Z" fill="#2D3561"/>
</g>
<defs>
<clipPath id="clip0_31_34">
<rect width="26" height="26" fill="white" transform="translate(0.333313)"/>
</clipPath>
</defs>
</svg>
