<svg width="172" height="48" viewBox="0 0 172 48" fill="none" xmlns="http://www.w3.org/2000/svg">
<g clip-path="url(#clip0_1_646)">
<path d="M9.90841 26.102L15.096 7.86479H17.609L16.155 14.955L10.5726 34H8.0775L9.90841 26.102ZM4.54135 7.86479L8.66985 25.743L9.90841 34H7.4313L1.09495 7.86479H4.54135ZM24.3223 25.725L28.361 7.86479H31.8254L25.507 34H23.0299L24.3223 25.725ZM17.9859 7.86479L23.0299 26.102L24.8608 34H22.3657L16.9807 14.955L15.5088 7.86479H17.9859ZM42.6492 34.359C41.297 34.359 40.0704 34.1316 38.9695 33.6769C37.8805 33.2102 36.9411 32.558 36.1513 31.7203C35.3735 30.8827 34.7752 29.8894 34.3563 28.7406C33.9375 27.5918 33.7281 26.3353 33.7281 24.9711V24.2172C33.7281 22.6376 33.9614 21.2316 34.4281 19.999C34.8948 18.7545 35.5291 17.7014 36.3308 16.8398C37.1326 15.9782 38.0421 15.326 39.0592 14.8832C40.0764 14.4405 41.1295 14.2191 42.2184 14.2191C43.6066 14.2191 44.8032 14.4584 45.8084 14.9371C46.8256 15.4158 47.6573 16.0859 48.3035 16.9475C48.9497 17.7971 49.4283 18.8023 49.7395 19.9631C50.0506 21.1119 50.2062 22.3684 50.2062 23.7326V25.2224H35.7026V22.512H46.8854V22.2607C46.8376 21.3991 46.6581 20.5614 46.3469 19.7477C46.0478 18.934 45.5691 18.2638 44.9109 17.7373C44.2528 17.2108 43.3553 16.9475 42.2184 16.9475C41.4645 16.9475 40.7705 17.109 40.1362 17.4321C39.502 17.7433 38.9575 18.21 38.5028 18.8322C38.048 19.4545 37.695 20.2144 37.4437 21.1119C37.1924 22.0094 37.0668 23.0445 37.0668 24.2172V24.9711C37.0668 25.8926 37.1924 26.7602 37.4437 27.5739C37.707 28.3757 38.0839 29.0817 38.5746 29.692C39.0772 30.3023 39.6815 30.781 40.3875 31.128C41.1055 31.475 41.9193 31.6485 42.8287 31.6485C44.0015 31.6485 44.9947 31.4092 45.8084 30.9305C46.6222 30.4519 47.3342 29.8117 47.9445 29.0099L49.9549 30.6074C49.536 31.2417 49.0035 31.846 48.3573 32.4204C47.7111 32.9948 46.9153 33.4615 45.97 33.8205C45.0366 34.1795 43.9297 34.359 42.6492 34.359ZM54.0654 6.42879H57.4041V30.2305L57.1169 34H54.0654V6.42879ZM70.5256 24.1275V24.5044C70.5256 25.9165 70.3581 27.2269 70.023 28.4355C69.6879 29.6322 69.1973 30.6733 68.5511 31.5588C67.9049 32.4443 67.1151 33.1324 66.1817 33.623C65.2483 34.1137 64.1773 34.359 62.9686 34.359C61.7361 34.359 60.6531 34.1496 59.7197 33.7307C58.7982 33.2999 58.0204 32.6837 57.3862 31.8819C56.7519 31.0801 56.2434 30.1108 55.8604 28.974C55.4895 27.8372 55.2322 26.5567 55.0886 25.1327V23.4813C55.2322 22.0453 55.4895 20.7589 55.8604 19.622C56.2434 18.4852 56.7519 17.5159 57.3862 16.7141C58.0204 15.9004 58.7982 15.2841 59.7197 14.8653C60.6411 14.4345 61.7121 14.2191 62.9327 14.2191C64.1533 14.2191 65.2363 14.4584 66.1817 14.9371C67.1271 15.4038 67.9169 16.0739 68.5511 16.9475C69.1973 17.8211 69.6879 18.8681 70.023 20.0887C70.3581 21.2974 70.5256 22.6436 70.5256 24.1275ZM67.1869 24.5044V24.1275C67.1869 23.1582 67.0971 22.2487 66.9176 21.3991C66.7381 20.5375 66.4509 19.7836 66.056 19.1374C65.6611 18.4792 65.1406 17.9647 64.4944 17.5937C63.8482 17.2108 63.0524 17.0193 62.107 17.0193C61.2694 17.0193 60.5394 17.1629 59.9171 17.4501C59.3068 17.7373 58.7863 18.1262 58.3555 18.6168C57.9247 19.0955 57.5717 19.646 57.2964 20.2682C57.0332 20.8785 56.8357 21.5128 56.7041 22.1709V26.4969C56.8955 27.3346 57.2067 28.1423 57.6375 28.9201C58.0802 29.686 58.6666 30.3143 59.3966 30.8049C60.1385 31.2955 61.054 31.5408 62.1429 31.5408C63.0404 31.5408 63.8063 31.3613 64.4405 31.0023C65.0867 30.6314 65.6073 30.1228 66.0022 29.4766C66.409 28.8304 66.7082 28.0825 66.8997 27.2328C67.0912 26.3832 67.1869 25.4737 67.1869 24.5044ZM82.7854 34.359C81.4332 34.359 80.2066 34.1316 79.1057 33.6769C78.0167 33.2102 77.0773 32.558 76.2875 31.7203C75.5097 30.8827 74.9114 29.8894 74.4925 28.7406C74.0737 27.5918 73.8643 26.3353 73.8643 24.9711V24.2172C73.8643 22.6376 74.0976 21.2316 74.5643 19.999C75.031 18.7545 75.6653 17.7014 76.467 16.8398C77.2688 15.9782 78.1783 15.326 79.1954 14.8832C80.2126 14.4405 81.2657 14.2191 82.3546 14.2191C83.7428 14.2191 84.9394 14.4584 85.9446 14.9371C86.9618 15.4158 87.7935 16.0859 88.4397 16.9475C89.0859 17.7971 89.5646 18.8023 89.8757 19.9631C90.1868 21.1119 90.3424 22.3684 90.3424 23.7326V25.2224H75.8388V22.512H87.0216V22.2607C86.9738 21.3991 86.7943 20.5614 86.4831 19.7477C86.184 18.934 85.7053 18.2638 85.0471 17.7373C84.389 17.2108 83.4915 16.9475 82.3546 16.9475C81.6007 16.9475 80.9067 17.109 80.2724 17.4321C79.6382 17.7433 79.0937 18.21 78.639 18.8322C78.1843 19.4545 77.8312 20.2144 77.5799 21.1119C77.3286 22.0094 77.203 23.0445 77.203 24.2172V24.9711C77.203 25.8926 77.3286 26.7602 77.5799 27.5739C77.8432 28.3757 78.2202 29.0817 78.7108 29.692C79.2134 30.3023 79.8177 30.781 80.5237 31.128C81.2417 31.475 82.0555 31.6485 82.9649 31.6485C84.1377 31.6485 85.1309 31.4092 85.9446 30.9305C86.7584 30.4519 87.4704 29.8117 88.0807 29.0099L90.0911 30.6074C89.6723 31.2417 89.1397 31.846 88.4935 32.4204C87.8473 32.9948 87.0516 33.4615 86.1062 33.8205C85.1728 34.1795 84.0659 34.359 82.7854 34.359ZM102.351 14.5781V17.127H91.8502V14.5781H102.351ZM95.4043 9.85724H98.725V29.1894C98.725 29.8476 98.8268 30.3442 99.0302 30.6792C99.2336 31.0143 99.4969 31.2357 99.82 31.3434C100.143 31.4511 100.49 31.5049 100.861 31.5049C101.136 31.5049 101.424 31.481 101.723 31.4331C102.034 31.3733 102.267 31.3254 102.423 31.2895L102.441 34C102.177 34.0838 101.83 34.1616 101.4 34.2334C100.981 34.3171 100.472 34.359 99.8738 34.359C99.0601 34.359 98.3122 34.1975 97.6301 33.8743C96.948 33.5512 96.4035 33.0127 95.9966 32.2588C95.6017 31.493 95.4043 30.4638 95.4043 29.1714V9.85724ZM109.567 6.42879V34H106.246V6.42879H109.567ZM108.777 23.5531L107.395 23.4992C107.407 22.1709 107.604 20.9444 107.987 19.8195C108.37 18.6827 108.909 17.6954 109.603 16.8577C110.297 16.0201 111.123 15.3739 112.08 14.9191C113.049 14.4524 114.12 14.2191 115.293 14.2191C116.25 14.2191 117.112 14.3507 117.878 14.614C118.644 14.8653 119.296 15.2722 119.834 15.8346C120.385 16.397 120.804 17.127 121.091 18.0245C121.378 18.91 121.522 19.993 121.522 21.2734V34H118.183V21.2375C118.183 20.2204 118.033 19.4066 117.734 18.7963C117.435 18.1741 116.998 17.7253 116.424 17.4501C115.849 17.1629 115.143 17.0193 114.306 17.0193C113.48 17.0193 112.726 17.1928 112.044 17.5398C111.374 17.8869 110.793 18.3655 110.303 18.9758C109.824 19.5861 109.447 20.2862 109.172 21.076C108.909 21.8538 108.777 22.6795 108.777 23.5531ZM130.102 14.5781V34H126.763V14.5781H130.102ZM126.512 9.42644C126.512 8.88794 126.673 8.4332 126.996 8.06224C127.331 7.69127 127.822 7.50579 128.468 7.50579C129.102 7.50579 129.587 7.69127 129.922 8.06224C130.269 8.4332 130.443 8.88794 130.443 9.42644C130.443 9.941 130.269 10.3838 129.922 10.7547C129.587 11.1137 129.102 11.2932 128.468 11.2932C127.822 11.2932 127.331 11.1137 126.996 10.7547C126.673 10.3838 126.512 9.941 126.512 9.42644ZM143.205 31.6306C143.995 31.6306 144.725 31.469 145.395 31.1459C146.065 30.8228 146.616 30.3801 147.046 29.8176C147.477 29.2432 147.723 28.5911 147.782 27.8611H150.942C150.882 29.0099 150.493 30.0809 149.775 31.0741C149.069 32.0554 148.141 32.8512 146.993 33.4615C145.844 34.0598 144.581 34.359 143.205 34.359C141.745 34.359 140.471 34.1017 139.382 33.5871C138.305 33.0726 137.407 32.3665 136.689 31.469C135.983 30.5715 135.451 29.5424 135.092 28.3816C134.745 27.2089 134.571 25.9704 134.571 24.666V23.9121C134.571 22.6077 134.745 21.3752 135.092 20.2144C135.451 19.0417 135.983 18.0065 136.689 17.109C137.407 16.2115 138.305 15.5055 139.382 14.9909C140.471 14.4764 141.745 14.2191 143.205 14.2191C144.725 14.2191 146.053 14.5302 147.19 15.1525C148.327 15.7628 149.218 16.6005 149.865 17.6655C150.523 18.7186 150.882 19.9152 150.942 21.2555H147.782C147.723 20.4537 147.495 19.7297 147.1 19.0835C146.717 18.4373 146.191 17.9228 145.521 17.5398C144.863 17.1449 144.091 16.9475 143.205 16.9475C142.188 16.9475 141.332 17.1509 140.638 17.5578C139.956 17.9527 139.412 18.4912 139.005 19.1733C138.61 19.8434 138.323 20.5913 138.143 21.417C137.976 22.2308 137.892 23.0625 137.892 23.9121V24.666C137.892 25.5156 137.976 26.3533 138.143 27.179C138.311 28.0047 138.592 28.7526 138.987 29.4227C139.394 30.0929 139.938 30.6314 140.62 31.0382C141.314 31.4331 142.176 31.6306 143.205 31.6306ZM165.984 28.8483C165.984 28.3697 165.876 27.9269 165.661 27.52C165.457 27.1012 165.032 26.7243 164.386 26.3892C163.752 26.0422 162.795 25.743 161.514 25.4917C160.437 25.2643 159.462 24.9951 158.588 24.6839C157.727 24.3728 156.991 23.9959 156.38 23.5531C155.782 23.1103 155.321 22.5898 154.998 21.9914C154.675 21.3931 154.514 20.6931 154.514 19.8913C154.514 19.1254 154.681 18.4014 155.016 17.7193C155.363 17.0372 155.848 16.4329 156.47 15.9064C157.104 15.3799 157.864 14.967 158.75 14.6678C159.635 14.3687 160.623 14.2191 161.712 14.2191C163.267 14.2191 164.596 14.4943 165.697 15.0448C166.797 15.5953 167.641 16.3312 168.227 17.2526C168.814 18.1621 169.107 19.1733 169.107 20.2862H165.786C165.786 19.7477 165.625 19.2271 165.302 18.7245C164.99 18.21 164.53 17.7852 163.919 17.4501C163.321 17.115 162.585 16.9475 161.712 16.9475C160.79 16.9475 160.042 17.0911 159.468 17.3783C158.905 17.6535 158.493 18.0065 158.229 18.4373C157.978 18.8681 157.852 19.3229 157.852 19.8015C157.852 20.1605 157.912 20.4836 158.032 20.7708C158.164 21.0461 158.391 21.3034 158.714 21.5427C159.037 21.7701 159.492 21.9855 160.078 22.1889C160.665 22.3923 161.412 22.5958 162.322 22.7992C163.913 23.1582 165.224 23.589 166.253 24.0916C167.282 24.5942 168.048 25.2105 168.551 25.9404C169.053 26.6704 169.304 27.5559 169.304 28.597C169.304 29.4467 169.125 30.2245 168.766 30.9305C168.419 31.6366 167.91 32.2469 167.24 32.7614C166.582 33.264 165.792 33.6589 164.871 33.9461C163.961 34.2214 162.938 34.359 161.801 34.359C160.09 34.359 158.642 34.0539 157.457 33.4435C156.273 32.8332 155.375 32.0434 154.765 31.0741C154.155 30.1048 153.85 29.0817 153.85 28.0047H157.188C157.236 28.9142 157.499 29.6381 157.978 30.1766C158.457 30.7032 159.043 31.0801 159.737 31.3075C160.431 31.5229 161.119 31.6306 161.801 31.6306C162.711 31.6306 163.471 31.5109 164.081 31.2716C164.703 31.0323 165.176 30.7032 165.499 30.2843C165.822 29.8655 165.984 29.3868 165.984 28.8483Z" fill="white"/>
<path d="M8.17126 38.5825H9.04783L11.2838 44.1465L13.515 38.5825H14.3963L11.6213 45.4075H10.9369L8.17126 38.5825ZM7.88533 38.5825H8.65876L8.78533 42.745V45.4075H7.88533V38.5825ZM13.9041 38.5825H14.6775V45.4075H13.7775V42.745L13.9041 38.5825ZM18.1616 42.9278V42.82C18.1616 42.4543 18.2148 42.1153 18.321 41.8028C18.4273 41.4872 18.5804 41.2137 18.7804 40.9825C18.9804 40.7481 19.2226 40.5668 19.507 40.4387C19.7913 40.3075 20.1101 40.2418 20.4632 40.2418C20.8195 40.2418 21.1398 40.3075 21.4241 40.4387C21.7116 40.5668 21.9554 40.7481 22.1554 40.9825C22.3585 41.2137 22.5132 41.4872 22.6195 41.8028C22.7257 42.1153 22.7788 42.4543 22.7788 42.82V42.9278C22.7788 43.2934 22.7257 43.6325 22.6195 43.945C22.5132 44.2575 22.3585 44.5309 22.1554 44.7653C21.9554 44.9965 21.7132 45.1778 21.4288 45.309C21.1476 45.4372 20.8288 45.5012 20.4726 45.5012C20.1163 45.5012 19.796 45.4372 19.5116 45.309C19.2273 45.1778 18.9835 44.9965 18.7804 44.7653C18.5804 44.5309 18.4273 44.2575 18.321 43.945C18.2148 43.6325 18.1616 43.2934 18.1616 42.9278ZM19.0288 42.82V42.9278C19.0288 43.1809 19.0585 43.42 19.1179 43.645C19.1773 43.8668 19.2663 44.0637 19.3851 44.2356C19.507 44.4075 19.6585 44.5434 19.8398 44.6434C20.021 44.7403 20.232 44.7887 20.4726 44.7887C20.7101 44.7887 20.9179 44.7403 21.096 44.6434C21.2773 44.5434 21.4273 44.4075 21.546 44.2356C21.6648 44.0637 21.7538 43.8668 21.8132 43.645C21.8757 43.42 21.907 43.1809 21.907 42.9278V42.82C21.907 42.57 21.8757 42.334 21.8132 42.1122C21.7538 41.8872 21.6632 41.6887 21.5413 41.5168C21.4226 41.3418 21.2726 41.2043 21.0913 41.1043C20.9132 41.0043 20.7038 40.9543 20.4632 40.9543C20.2257 40.9543 20.0163 41.0043 19.8351 41.1043C19.657 41.2043 19.507 41.3418 19.3851 41.5168C19.2663 41.6887 19.1773 41.8872 19.1179 42.1122C19.0585 42.334 19.0288 42.57 19.0288 42.82ZM26.9895 41.1325V45.4075H26.1223V40.3356H26.9661L26.9895 41.1325ZM28.5739 40.3075L28.5692 41.1137C28.4973 41.0981 28.4286 41.0887 28.363 41.0856C28.3005 41.0793 28.2286 41.0762 28.1473 41.0762C27.9473 41.0762 27.7708 41.1075 27.6176 41.17C27.4645 41.2325 27.3348 41.32 27.2286 41.4325C27.1223 41.545 27.038 41.6793 26.9755 41.8356C26.9161 41.9887 26.877 42.1575 26.8583 42.3418L26.6145 42.4825C26.6145 42.1762 26.6442 41.8887 26.7036 41.62C26.7661 41.3512 26.8614 41.1137 26.9895 40.9075C27.1176 40.6981 27.2801 40.5356 27.477 40.42C27.677 40.3012 27.9145 40.2418 28.1895 40.2418C28.252 40.2418 28.3239 40.2497 28.4051 40.2653C28.4864 40.2778 28.5426 40.2918 28.5739 40.3075ZM33.6424 45.5012C33.2893 45.5012 32.969 45.4418 32.6815 45.3231C32.3971 45.2012 32.1518 45.0309 31.9455 44.8122C31.7424 44.5934 31.5861 44.334 31.4768 44.034C31.3674 43.734 31.3127 43.4059 31.3127 43.0497V42.8528C31.3127 42.4403 31.3736 42.0731 31.4955 41.7512C31.6174 41.4262 31.783 41.1512 31.9924 40.9262C32.2018 40.7012 32.4393 40.5309 32.7049 40.4153C32.9705 40.2997 33.2455 40.2418 33.5299 40.2418C33.8924 40.2418 34.2049 40.3043 34.4674 40.4293C34.733 40.5543 34.9502 40.7293 35.119 40.9543C35.2877 41.1762 35.4127 41.4387 35.494 41.7418C35.5752 42.0418 35.6158 42.37 35.6158 42.7262V43.1153H31.8283V42.4075H34.7486V42.3418C34.7361 42.1168 34.6893 41.8981 34.608 41.6856C34.5299 41.4731 34.4049 41.2981 34.233 41.1606C34.0611 41.0231 33.8268 40.9543 33.5299 40.9543C33.333 40.9543 33.1518 40.9965 32.9861 41.0809C32.8205 41.1622 32.6783 41.284 32.5596 41.4465C32.4408 41.609 32.3486 41.8075 32.283 42.0418C32.2174 42.2762 32.1846 42.5465 32.1846 42.8528V43.0497C32.1846 43.2903 32.2174 43.5168 32.283 43.7293C32.3518 43.9387 32.4502 44.1231 32.5783 44.2825C32.7096 44.4418 32.8674 44.5668 33.0518 44.6575C33.2393 44.7481 33.4518 44.7934 33.6893 44.7934C33.9955 44.7934 34.2549 44.7309 34.4674 44.6059C34.6799 44.4809 34.8658 44.3137 35.0252 44.1043L35.5502 44.5215C35.4408 44.6872 35.3018 44.845 35.133 44.995C34.9643 45.145 34.7565 45.2668 34.5096 45.3606C34.2658 45.4543 33.9768 45.5012 33.6424 45.5012ZM45.9872 38.5825V45.4075H45.0966V38.5825H45.9872ZM48.181 38.5825V39.3231H42.9075V38.5825H48.181ZM52.1854 38.2075V45.4075H51.3182V38.2075H52.1854ZM51.9791 42.6793L51.6182 42.6653C51.6213 42.3184 51.6729 41.9981 51.7729 41.7043C51.8729 41.4075 52.0135 41.1497 52.1948 40.9309C52.376 40.7122 52.5916 40.5434 52.8416 40.4247C53.0948 40.3028 53.3745 40.2418 53.6807 40.2418C53.9307 40.2418 54.1557 40.2762 54.3557 40.345C54.5557 40.4106 54.726 40.5168 54.8666 40.6637C55.0104 40.8106 55.1198 41.0012 55.1948 41.2356C55.2698 41.4668 55.3073 41.7497 55.3073 42.084V45.4075H54.4354V42.0747C54.4354 41.809 54.3963 41.5965 54.3182 41.4372C54.2401 41.2747 54.126 41.1575 53.976 41.0856C53.826 41.0106 53.6416 40.9731 53.4229 40.9731C53.2073 40.9731 53.0104 41.0184 52.8323 41.109C52.6573 41.1997 52.5057 41.3247 52.3776 41.484C52.2526 41.6434 52.1541 41.8262 52.0823 42.0325C52.0135 42.2356 51.9791 42.4512 51.9791 42.6793ZM61.8523 44.5403V41.9293C61.8523 41.7293 61.8117 41.5559 61.7305 41.409C61.6523 41.259 61.5336 41.1434 61.3742 41.0622C61.2148 40.9809 61.018 40.9403 60.7836 40.9403C60.5648 40.9403 60.3726 40.9778 60.207 41.0528C60.0445 41.1278 59.9164 41.2262 59.8226 41.3481C59.732 41.47 59.6867 41.6012 59.6867 41.7418H58.8195C58.8195 41.5606 58.8664 41.3809 58.9601 41.2028C59.0539 41.0247 59.1883 40.8637 59.3633 40.72C59.5414 40.5731 59.7539 40.4575 60.0008 40.3731C60.2508 40.2856 60.5289 40.2418 60.8351 40.2418C61.2039 40.2418 61.5289 40.3043 61.8101 40.4293C62.0945 40.5543 62.3164 40.7434 62.4758 40.9965C62.6383 41.2465 62.7195 41.5606 62.7195 41.9387V44.3012C62.7195 44.47 62.7336 44.6497 62.7617 44.8403C62.793 45.0309 62.8383 45.195 62.8976 45.3325V45.4075H61.993C61.9492 45.3075 61.9148 45.1747 61.8898 45.009C61.8648 44.8403 61.8523 44.684 61.8523 44.5403ZM62.0023 42.3325L62.0117 42.9418H61.1351C60.8883 42.9418 60.668 42.9622 60.4742 43.0028C60.2805 43.0403 60.118 43.0981 59.9867 43.1762C59.8555 43.2543 59.7555 43.3528 59.6867 43.4715C59.618 43.5872 59.5836 43.7231 59.5836 43.8793C59.5836 44.0387 59.6195 44.184 59.6914 44.3153C59.7633 44.4465 59.8711 44.5512 60.0148 44.6293C60.1617 44.7043 60.3414 44.7418 60.5539 44.7418C60.8195 44.7418 61.0539 44.6856 61.257 44.5731C61.4601 44.4606 61.6211 44.3231 61.7398 44.1606C61.8617 43.9981 61.9273 43.8403 61.9367 43.6872L62.307 44.1043C62.2851 44.2356 62.2258 44.3809 62.1289 44.5403C62.032 44.6997 61.9023 44.8528 61.7398 44.9997C61.5805 45.1434 61.3898 45.2637 61.168 45.3606C60.9492 45.4543 60.7023 45.5012 60.4273 45.5012C60.0836 45.5012 59.782 45.434 59.5226 45.2997C59.2664 45.1653 59.0664 44.9856 58.9226 44.7606C58.782 44.5325 58.7117 44.2778 58.7117 43.9965C58.7117 43.7247 58.7648 43.4856 58.8711 43.2793C58.9773 43.07 59.1305 42.8965 59.3305 42.759C59.5305 42.6184 59.7711 42.5122 60.0523 42.4403C60.3336 42.3684 60.6476 42.3325 60.9945 42.3325H62.0023ZM67.2068 41.4184V45.4075H66.3396V40.3356H67.1599L67.2068 41.4184ZM67.0005 42.6793L66.6396 42.6653C66.6427 42.3184 66.6943 41.9981 66.7943 41.7043C66.8943 41.4075 67.0349 41.1497 67.2161 40.9309C67.3974 40.7122 67.613 40.5434 67.863 40.4247C68.1161 40.3028 68.3958 40.2418 68.7021 40.2418C68.9521 40.2418 69.1771 40.2762 69.3771 40.345C69.5771 40.4106 69.7474 40.5168 69.888 40.6637C70.0318 40.8106 70.1411 41.0012 70.2161 41.2356C70.2911 41.4668 70.3286 41.7497 70.3286 42.084V45.4075H69.4568V42.0747C69.4568 41.809 69.4177 41.5965 69.3396 41.4372C69.2615 41.2747 69.1474 41.1575 68.9974 41.0856C68.8474 41.0106 68.663 40.9731 68.4443 40.9731C68.2286 40.9731 68.0318 41.0184 67.8536 41.109C67.6786 41.1997 67.5271 41.3247 67.399 41.484C67.274 41.6434 67.1755 41.8262 67.1036 42.0325C67.0349 42.2356 67.0005 42.4512 67.0005 42.6793ZM78.9844 38.5825L80.7563 42.009L82.5328 38.5825H83.5594L81.2063 42.8575V45.4075H80.3016V42.8575L77.9485 38.5825H78.9844ZM86.0216 42.9278V42.82C86.0216 42.4543 86.0748 42.1153 86.181 41.8028C86.2873 41.4872 86.4404 41.2137 86.6404 40.9825C86.8404 40.7481 87.0826 40.5668 87.367 40.4387C87.6513 40.3075 87.9701 40.2418 88.3232 40.2418C88.6795 40.2418 88.9998 40.3075 89.2841 40.4387C89.5716 40.5668 89.8154 40.7481 90.0154 40.9825C90.2185 41.2137 90.3732 41.4872 90.4795 41.8028C90.5857 42.1153 90.6388 42.4543 90.6388 42.82V42.9278C90.6388 43.2934 90.5857 43.6325 90.4795 43.945C90.3732 44.2575 90.2185 44.5309 90.0154 44.7653C89.8154 44.9965 89.5732 45.1778 89.2888 45.309C89.0076 45.4372 88.6888 45.5012 88.3326 45.5012C87.9763 45.5012 87.656 45.4372 87.3716 45.309C87.0873 45.1778 86.8435 44.9965 86.6404 44.7653C86.4404 44.5309 86.2873 44.2575 86.181 43.945C86.0748 43.6325 86.0216 43.2934 86.0216 42.9278ZM86.8888 42.82V42.9278C86.8888 43.1809 86.9185 43.42 86.9779 43.645C87.0373 43.8668 87.1263 44.0637 87.2451 44.2356C87.367 44.4075 87.5185 44.5434 87.6998 44.6434C87.881 44.7403 88.092 44.7887 88.3326 44.7887C88.5701 44.7887 88.7779 44.7403 88.956 44.6434C89.1373 44.5434 89.2873 44.4075 89.406 44.2356C89.5248 44.0637 89.6138 43.8668 89.6732 43.645C89.7357 43.42 89.767 43.1809 89.767 42.9278V42.82C89.767 42.57 89.7357 42.334 89.6732 42.1122C89.6138 41.8872 89.5232 41.6887 89.4013 41.5168C89.2826 41.3418 89.1326 41.2043 88.9513 41.1043C88.7732 41.0043 88.5638 40.9543 88.3232 40.9543C88.0857 40.9543 87.8763 41.0043 87.6951 41.1043C87.517 41.2043 87.367 41.3418 87.2451 41.5168C87.1263 41.6887 87.0373 41.8872 86.9779 42.1122C86.9185 42.334 86.8888 42.57 86.8888 42.82ZM97.0855 44.2356V40.3356H97.9573V45.4075H97.1276L97.0855 44.2356ZM97.2495 43.1668L97.6105 43.1575C97.6105 43.495 97.5745 43.8075 97.5026 44.095C97.4339 44.3793 97.3214 44.6262 97.1651 44.8356C97.0089 45.045 96.8042 45.209 96.5511 45.3278C96.298 45.4434 95.9901 45.5012 95.6276 45.5012C95.3808 45.5012 95.1542 45.4653 94.948 45.3934C94.7448 45.3215 94.5698 45.2106 94.423 45.0606C94.2761 44.9106 94.162 44.7153 94.0808 44.4747C94.0026 44.234 93.9636 43.945 93.9636 43.6075V40.3356H94.8308V43.6168C94.8308 43.845 94.8558 44.034 94.9058 44.184C94.9589 44.3309 95.0292 44.4481 95.1167 44.5356C95.2073 44.62 95.3073 44.6793 95.4167 44.7137C95.5292 44.7481 95.6448 44.7653 95.7636 44.7653C96.1323 44.7653 96.4245 44.695 96.6401 44.5543C96.8558 44.4106 97.0105 44.2184 97.1042 43.9778C97.2011 43.734 97.2495 43.4637 97.2495 43.1668ZM102.402 41.1325V45.4075H101.535V40.3356H102.379L102.402 41.1325ZM103.987 40.3075L103.982 41.1137C103.91 41.0981 103.841 41.0887 103.776 41.0856C103.713 41.0793 103.641 41.0762 103.56 41.0762C103.36 41.0762 103.184 41.1075 103.031 41.17C102.877 41.2325 102.748 41.32 102.641 41.4325C102.535 41.545 102.451 41.6793 102.388 41.8356C102.329 41.9887 102.29 42.1575 102.271 42.3418L102.027 42.4825C102.027 42.1762 102.057 41.8887 102.116 41.62C102.179 41.3512 102.274 41.1137 102.402 40.9075C102.531 40.6981 102.693 40.5356 102.89 40.42C103.09 40.3012 103.327 40.2418 103.602 40.2418C103.665 40.2418 103.737 40.2497 103.818 40.2653C103.899 40.2778 103.956 40.2918 103.987 40.3075ZM114.147 38.5825V45.4075H113.257V38.5825H114.147ZM116.341 38.5825V39.3231H111.068V38.5825H116.341ZM120.345 38.2075V45.4075H119.478V38.2075H120.345ZM120.139 42.6793L119.778 42.6653C119.781 42.3184 119.833 41.9981 119.933 41.7043C120.033 41.4075 120.174 41.1497 120.355 40.9309C120.536 40.7122 120.752 40.5434 121.002 40.4247C121.255 40.3028 121.534 40.2418 121.841 40.2418C122.091 40.2418 122.316 40.2762 122.516 40.345C122.716 40.4106 122.886 40.5168 123.027 40.6637C123.17 40.8106 123.28 41.0012 123.355 41.2356C123.43 41.4668 123.467 41.7497 123.467 42.084V45.4075H122.595V42.0747C122.595 41.809 122.556 41.5965 122.478 41.4372C122.4 41.2747 122.286 41.1575 122.136 41.0856C121.986 41.0106 121.802 40.9731 121.583 40.9731C121.367 40.9731 121.17 41.0184 120.992 41.109C120.817 41.1997 120.666 41.3247 120.538 41.484C120.413 41.6434 120.314 41.8262 120.242 42.0325C120.174 42.2356 120.139 42.4512 120.139 42.6793ZM126.792 42.9278V42.82C126.792 42.4543 126.845 42.1153 126.951 41.8028C127.058 41.4872 127.211 41.2137 127.411 40.9825C127.611 40.7481 127.853 40.5668 128.137 40.4387C128.422 40.3075 128.74 40.2418 129.094 40.2418C129.45 40.2418 129.77 40.3075 130.055 40.4387C130.342 40.5668 130.586 40.7481 130.786 40.9825C130.989 41.2137 131.144 41.4872 131.25 41.8028C131.356 42.1153 131.409 42.4543 131.409 42.82V42.9278C131.409 43.2934 131.356 43.6325 131.25 43.945C131.144 44.2575 130.989 44.5309 130.786 44.7653C130.586 44.9965 130.344 45.1778 130.059 45.309C129.778 45.4372 129.459 45.5012 129.103 45.5012C128.747 45.5012 128.426 45.4372 128.142 45.309C127.858 45.1778 127.614 44.9965 127.411 44.7653C127.211 44.5309 127.058 44.2575 126.951 43.945C126.845 43.6325 126.792 43.2934 126.792 42.9278ZM127.659 42.82V42.9278C127.659 43.1809 127.689 43.42 127.748 43.645C127.808 43.8668 127.897 44.0637 128.015 44.2356C128.137 44.4075 128.289 44.5434 128.47 44.6434C128.651 44.7403 128.862 44.7887 129.103 44.7887C129.34 44.7887 129.548 44.7403 129.726 44.6434C129.908 44.5434 130.058 44.4075 130.176 44.2356C130.295 44.0637 130.384 43.8668 130.444 43.645C130.506 43.42 130.537 43.1809 130.537 42.9278V42.82C130.537 42.57 130.506 42.334 130.444 42.1122C130.384 41.8872 130.294 41.6887 130.172 41.5168C130.053 41.3418 129.903 41.2043 129.722 41.1043C129.544 41.0043 129.334 40.9543 129.094 40.9543C128.856 40.9543 128.647 41.0043 128.465 41.1043C128.287 41.2043 128.137 41.3418 128.015 41.5168C127.897 41.6887 127.808 41.8872 127.748 42.1122C127.689 42.334 127.659 42.57 127.659 42.82ZM137.856 44.2356V40.3356H138.728V45.4075H137.898L137.856 44.2356ZM138.02 43.1668L138.381 43.1575C138.381 43.495 138.345 43.8075 138.273 44.095C138.204 44.3793 138.092 44.6262 137.936 44.8356C137.779 45.045 137.575 45.209 137.321 45.3278C137.068 45.4434 136.761 45.5012 136.398 45.5012C136.151 45.5012 135.925 45.4653 135.718 45.3934C135.515 45.3215 135.34 45.2106 135.193 45.0606C135.046 44.9106 134.932 44.7153 134.851 44.4747C134.773 44.234 134.734 43.945 134.734 43.6075V40.3356H135.601V43.6168C135.601 43.845 135.626 44.034 135.676 44.184C135.729 44.3309 135.8 44.4481 135.887 44.5356C135.978 44.62 136.078 44.6793 136.187 44.7137C136.3 44.7481 136.415 44.7653 136.534 44.7653C136.903 44.7653 137.195 44.695 137.411 44.5543C137.626 44.4106 137.781 44.2184 137.875 43.9778C137.971 43.734 138.02 43.4637 138.02 43.1668ZM145.592 40.3356H146.379V45.2997C146.379 45.7465 146.288 46.1278 146.107 46.4434C145.926 46.759 145.673 46.9981 145.348 47.1606C145.026 47.3262 144.654 47.409 144.232 47.409C144.057 47.409 143.851 47.3809 143.613 47.3247C143.379 47.2715 143.148 47.1793 142.92 47.0481C142.695 46.92 142.506 46.7465 142.352 46.5278L142.807 46.0122C143.02 46.2684 143.242 46.4465 143.473 46.5465C143.707 46.6465 143.938 46.6965 144.167 46.6965C144.442 46.6965 144.679 46.645 144.879 46.5418C145.079 46.4387 145.234 46.2856 145.343 46.0825C145.456 45.8825 145.512 45.6356 145.512 45.3418V41.4512L145.592 40.3356ZM142.099 42.9278V42.8293C142.099 42.4418 142.145 42.0903 142.235 41.7747C142.329 41.4559 142.462 41.1825 142.634 40.9543C142.809 40.7262 143.02 40.5512 143.267 40.4293C143.513 40.3043 143.792 40.2418 144.101 40.2418C144.42 40.2418 144.698 40.2981 144.935 40.4106C145.176 40.52 145.379 40.6809 145.545 40.8934C145.713 41.1028 145.846 41.3559 145.943 41.6528C146.04 41.9497 146.107 42.2856 146.145 42.6606V43.0918C146.11 43.4637 146.043 43.7981 145.943 44.095C145.846 44.3918 145.713 44.645 145.545 44.8543C145.379 45.0637 145.176 45.2247 144.935 45.3372C144.695 45.4465 144.413 45.5012 144.092 45.5012C143.788 45.5012 143.513 45.4372 143.267 45.309C143.023 45.1809 142.813 45.0012 142.638 44.77C142.463 44.5387 142.329 44.2668 142.235 43.9543C142.145 43.6387 142.099 43.2965 142.099 42.9278ZM142.967 42.8293V42.9278C142.967 43.1809 142.992 43.4184 143.042 43.6403C143.095 43.8622 143.174 44.0575 143.281 44.2262C143.39 44.395 143.529 44.5278 143.698 44.6247C143.867 44.7184 144.068 44.7653 144.302 44.7653C144.59 44.7653 144.827 44.7043 145.015 44.5825C145.202 44.4606 145.351 44.2997 145.46 44.0997C145.573 43.8997 145.66 43.6825 145.723 43.4481V42.3184C145.688 42.1465 145.635 41.9809 145.563 41.8215C145.495 41.659 145.404 41.5153 145.292 41.3903C145.182 41.2622 145.046 41.1606 144.884 41.0856C144.721 41.0106 144.531 40.9731 144.312 40.9731C144.074 40.9731 143.87 41.0231 143.698 41.1231C143.529 41.22 143.39 41.3543 143.281 41.5262C143.174 41.695 143.095 41.8918 143.042 42.1168C142.992 42.3387 142.967 42.5762 142.967 42.8293ZM150.819 38.2075V45.4075H149.952V38.2075H150.819ZM150.613 42.6793L150.252 42.6653C150.255 42.3184 150.307 41.9981 150.407 41.7043C150.507 41.4075 150.648 41.1497 150.829 40.9309C151.01 40.7122 151.226 40.5434 151.476 40.4247C151.729 40.3028 152.008 40.2418 152.315 40.2418C152.565 40.2418 152.79 40.2762 152.99 40.345C153.19 40.4106 153.36 40.5168 153.501 40.6637C153.644 40.8106 153.754 41.0012 153.829 41.2356C153.904 41.4668 153.941 41.7497 153.941 42.084V45.4075H153.069V42.0747C153.069 41.809 153.03 41.5965 152.952 41.4372C152.874 41.2747 152.76 41.1575 152.61 41.0856C152.46 41.0106 152.276 40.9731 152.057 40.9731C151.841 40.9731 151.644 41.0184 151.466 41.109C151.291 41.1997 151.14 41.3247 151.012 41.484C150.887 41.6434 150.788 41.8262 150.716 42.0325C150.648 42.2356 150.613 42.4512 150.613 42.6793ZM159.619 40.3356V41.0012H156.877V40.3356H159.619ZM157.805 39.1028H158.672V44.1512C158.672 44.3231 158.699 44.4528 158.752 44.5403C158.805 44.6278 158.874 44.6856 158.958 44.7137C159.043 44.7418 159.133 44.7559 159.23 44.7559C159.302 44.7559 159.377 44.7497 159.455 44.7372C159.536 44.7215 159.597 44.709 159.638 44.6997L159.643 45.4075C159.574 45.4293 159.483 45.4497 159.371 45.4684C159.261 45.4903 159.129 45.5012 158.972 45.5012C158.76 45.5012 158.564 45.459 158.386 45.3747C158.208 45.2903 158.066 45.1497 157.96 44.9528C157.857 44.7528 157.805 44.484 157.805 44.1465V39.1028ZM165.845 44.0622C165.845 43.9372 165.817 43.8215 165.761 43.7153C165.708 43.6059 165.597 43.5075 165.428 43.42C165.263 43.3293 165.013 43.2512 164.678 43.1856C164.397 43.1262 164.142 43.0559 163.914 42.9747C163.689 42.8934 163.497 42.795 163.338 42.6793C163.181 42.5637 163.061 42.4278 162.977 42.2715C162.892 42.1153 162.85 41.9325 162.85 41.7231C162.85 41.5231 162.894 41.334 162.981 41.1559C163.072 40.9778 163.199 40.82 163.361 40.6825C163.527 40.545 163.725 40.4372 163.956 40.359C164.188 40.2809 164.445 40.2418 164.73 40.2418C165.136 40.2418 165.483 40.3137 165.77 40.4575C166.058 40.6012 166.278 40.7934 166.431 41.034C166.585 41.2715 166.661 41.5356 166.661 41.8262H165.794C165.794 41.6856 165.752 41.5497 165.667 41.4184C165.586 41.284 165.466 41.1731 165.306 41.0856C165.15 40.9981 164.958 40.9543 164.73 40.9543C164.489 40.9543 164.294 40.9918 164.144 41.0668C163.997 41.1387 163.889 41.2309 163.82 41.3434C163.755 41.4559 163.722 41.5747 163.722 41.6997C163.722 41.7934 163.738 41.8778 163.769 41.9528C163.803 42.0247 163.863 42.0918 163.947 42.1543C164.031 42.2137 164.15 42.27 164.303 42.3231C164.456 42.3762 164.652 42.4293 164.889 42.4825C165.305 42.5762 165.647 42.6887 165.916 42.82C166.185 42.9512 166.385 43.1122 166.516 43.3028C166.647 43.4934 166.713 43.7247 166.713 43.9965C166.713 44.2184 166.666 44.4215 166.572 44.6059C166.481 44.7903 166.349 44.9497 166.174 45.084C166.002 45.2153 165.795 45.3184 165.555 45.3934C165.317 45.4653 165.05 45.5012 164.753 45.5012C164.306 45.5012 163.928 45.4215 163.619 45.2622C163.31 45.1028 163.075 44.8965 162.916 44.6434C162.756 44.3903 162.677 44.1231 162.677 43.8418H163.549C163.561 44.0793 163.63 44.2684 163.755 44.409C163.88 44.5465 164.033 44.645 164.214 44.7043C164.395 44.7606 164.575 44.7887 164.753 44.7887C164.991 44.7887 165.189 44.7575 165.349 44.695C165.511 44.6325 165.635 44.5465 165.719 44.4372C165.803 44.3278 165.845 44.2028 165.845 44.0622Z" fill="white"/>
</g>
<defs>
<clipPath id="clip0_1_646">
<rect width="172" height="48" fill="white"/>
</clipPath>
</defs>
</svg>
