<svg width="21" height="26" viewBox="0 0 21 26" fill="none" xmlns="http://www.w3.org/2000/svg">
<g clip-path="url(#clip0_31_30)">
<mask id="path-1-outside-1_31_30" maskUnits="userSpaceOnUse" x="-0.180756" y="-0.976288" width="20" height="28" fill="black">
<rect fill="white" x="-0.180756" y="-0.976288" width="20" height="28"/>
<path d="M17.7934 19.0024L15.9153 17.8331C16.397 17.7634 16.8373 17.5221 17.1552 17.1535C17.3458 16.9304 17.4855 16.6684 17.5646 16.3858C17.6438 16.1032 17.6604 15.8067 17.6133 15.5171C17.278 13.4267 17.1094 11.3131 17.1089 9.19598V6.91812V6.9165C17.1089 3.11574 14.0169 0.0237122 10.2162 0.0237122C6.4154 0.0237122 3.32337 3.11574 3.32337 6.9165V9.19598C3.32337 11.3068 3.15389 13.4338 2.81898 15.5171C2.77239 15.8067 2.78922 16.1031 2.86832 16.3856C2.94743 16.6681 3.08691 16.9301 3.27715 17.1535C3.57719 17.5054 3.98508 17.7357 4.43027 17.8233L2.5384 19.0024C2.01119 19.3288 1.57637 19.7848 1.27542 20.3269C0.974475 20.869 0.817428 21.4792 0.81926 22.0993V25.57C0.81926 25.6775 0.861978 25.7807 0.938017 25.8567C1.01405 25.9327 1.11718 25.9755 1.22472 25.9755C1.33225 25.9755 1.43538 25.9327 1.51142 25.8567C1.58746 25.7807 1.63018 25.6775 1.63018 25.57V22.0993C1.63018 21.1132 2.1297 20.2123 2.96738 19.6909L6.2005 17.6757C6.69494 18.242 7.30429 18.6965 7.98801 19.009C8.67172 19.3215 9.41414 19.4848 10.1659 19.4881C10.9173 19.4848 11.6595 19.3215 12.343 19.0093C13.0266 18.6971 13.6359 18.2431 14.1305 17.6774L17.3636 19.6909C17.774 19.9446 18.1124 20.2993 18.3467 20.721C18.5809 21.1428 18.7031 21.6176 18.7016 22.1001V25.57C18.7016 25.6775 18.7443 25.7807 18.8203 25.8567C18.8964 25.9327 18.9995 25.9755 19.107 25.9755C19.2146 25.9755 19.3177 25.9327 19.3938 25.8567C19.4698 25.7807 19.5125 25.6775 19.5125 25.57V22.1001C19.5148 21.4798 19.3579 20.8694 19.057 20.327C18.756 19.7847 18.3209 19.3286 17.7934 19.0024ZM16.5373 16.628C16.4232 16.7622 16.2812 16.87 16.1213 16.9438C15.9614 17.0176 15.7873 17.0556 15.6112 17.0554H14.6657L13.0017 16.019V13.8847C13.6347 13.4331 14.1509 12.8369 14.5071 12.1456C14.8634 11.4544 15.0495 10.6881 15.05 9.9104V8.55942C15.3436 8.96379 15.5022 9.45043 15.5033 9.95014C15.5038 10.038 15.5328 10.1234 15.586 10.1934C15.6391 10.2635 15.7136 10.3144 15.7981 10.3385C15.8826 10.3626 15.9727 10.3587 16.0548 10.3272C16.1369 10.2958 16.2066 10.2386 16.2534 10.1642L16.3151 10.0629C16.3556 11.9304 16.517 13.8036 16.8113 15.6444C16.8402 15.8184 16.8307 15.9967 16.7833 16.1666C16.736 16.3365 16.652 16.494 16.5373 16.628ZM6.07319 9.91121V9.04272C6.07319 7.8077 6.8168 6.68944 7.93505 6.19235C9.40857 7.08075 11.097 7.54932 12.8176 7.54739H12.8184L13.1087 7.5555C13.5223 7.5555 13.905 7.66984 14.2448 7.85554C14.2448 7.86284 14.2407 7.86933 14.2407 7.87662V9.9104C14.2395 10.9931 13.8088 12.0311 13.0432 12.7966C12.2776 13.5622 11.2397 13.9929 10.157 13.9942C9.07428 13.9933 8.03618 13.5629 7.27053 12.7974C6.50489 12.0319 6.07426 10.9939 6.07319 9.91121ZM4.82113 17.0554C4.64507 17.0554 4.47111 17.0172 4.31126 16.9434C4.15141 16.8696 4.00949 16.7619 3.8953 16.6279C3.78111 16.4939 3.69737 16.3367 3.64987 16.1672C3.60237 15.9977 3.59223 15.8198 3.62017 15.646C3.96075 13.5198 4.13429 11.3498 4.13429 9.19598V6.9165C4.13429 3.56255 6.86221 0.834628 10.2162 0.834628C13.5701 0.834628 16.298 3.56255 16.298 6.9165C16.298 7.52225 16.2113 8.11341 16.0458 8.66646C15.7973 8.09663 15.3884 7.61143 14.8689 7.27002C14.3493 6.92862 13.7417 6.74577 13.1201 6.74377L12.8297 6.73566C10.98 6.73566 9.21306 6.16316 7.72178 5.0814C7.68407 5.04166 7.63859 5.0101 7.58817 4.98867C7.53776 4.96725 7.48347 4.95641 7.42869 4.95684C7.37391 4.95726 7.3198 4.96895 7.26973 4.99116C7.21965 5.01337 7.17467 5.04563 7.13758 5.08595C7.10049 5.12627 7.07209 5.17378 7.05413 5.22553C7.03616 5.27729 7.02903 5.33218 7.03317 5.38681C7.03731 5.44143 7.05263 5.49462 7.07818 5.54308C7.10373 5.59154 7.13897 5.63423 7.18171 5.6685C6.59874 6.01833 6.11583 6.51257 5.7796 7.10349C5.44338 7.69441 5.2652 8.36204 5.26227 9.04191V9.9104C5.26297 10.6913 5.45071 11.4606 5.80977 12.154C6.16883 12.8475 6.68876 13.4448 7.32605 13.8961V16.0182L5.66368 17.0546L4.82113 17.0554ZM10.1667 18.6772C9.55238 18.6749 8.9451 18.5463 8.38252 18.2996C7.81994 18.0528 7.31407 17.6931 6.89627 17.2427L7.9464 16.5883C8.00384 16.5514 8.05089 16.5005 8.08311 16.4403C8.11533 16.3801 8.13163 16.3127 8.13048 16.2445H8.13778V14.364C8.75408 14.6445 9.43687 14.8051 10.157 14.8051C10.8835 14.8051 11.5712 14.6413 12.1924 14.3567V16.2445H12.1997C12.1997 16.3799 12.2605 16.5121 12.3837 16.5883L13.4371 17.2443C13.019 17.6942 12.5131 18.0535 11.9505 18.3C11.388 18.5464 10.7809 18.6748 10.1667 18.6772Z"/>
</mask>
<path d="M17.7934 19.0024L15.9153 17.8331C16.397 17.7634 16.8373 17.5221 17.1552 17.1535C17.3458 16.9304 17.4855 16.6684 17.5646 16.3858C17.6438 16.1032 17.6604 15.8067 17.6133 15.5171C17.278 13.4267 17.1094 11.3131 17.1089 9.19598V6.91812V6.9165C17.1089 3.11574 14.0169 0.0237122 10.2162 0.0237122C6.4154 0.0237122 3.32337 3.11574 3.32337 6.9165V9.19598C3.32337 11.3068 3.15389 13.4338 2.81898 15.5171C2.77239 15.8067 2.78922 16.1031 2.86832 16.3856C2.94743 16.6681 3.08691 16.9301 3.27715 17.1535C3.57719 17.5054 3.98508 17.7357 4.43027 17.8233L2.5384 19.0024C2.01119 19.3288 1.57637 19.7848 1.27542 20.3269C0.974475 20.869 0.817428 21.4792 0.81926 22.0993V25.57C0.81926 25.6775 0.861978 25.7807 0.938017 25.8567C1.01405 25.9327 1.11718 25.9755 1.22472 25.9755C1.33225 25.9755 1.43538 25.9327 1.51142 25.8567C1.58746 25.7807 1.63018 25.6775 1.63018 25.57V22.0993C1.63018 21.1132 2.1297 20.2123 2.96738 19.6909L6.2005 17.6757C6.69494 18.242 7.30429 18.6965 7.98801 19.009C8.67172 19.3215 9.41414 19.4848 10.1659 19.4881C10.9173 19.4848 11.6595 19.3215 12.343 19.0093C13.0266 18.6971 13.6359 18.2431 14.1305 17.6774L17.3636 19.6909C17.774 19.9446 18.1124 20.2993 18.3467 20.721C18.5809 21.1428 18.7031 21.6176 18.7016 22.1001V25.57C18.7016 25.6775 18.7443 25.7807 18.8203 25.8567C18.8964 25.9327 18.9995 25.9755 19.107 25.9755C19.2146 25.9755 19.3177 25.9327 19.3938 25.8567C19.4698 25.7807 19.5125 25.6775 19.5125 25.57V22.1001C19.5148 21.4798 19.3579 20.8694 19.057 20.327C18.756 19.7847 18.3209 19.3286 17.7934 19.0024ZM16.5373 16.628C16.4232 16.7622 16.2812 16.87 16.1213 16.9438C15.9614 17.0176 15.7873 17.0556 15.6112 17.0554H14.6657L13.0017 16.019V13.8847C13.6347 13.4331 14.1509 12.8369 14.5071 12.1456C14.8634 11.4544 15.0495 10.6881 15.05 9.9104V8.55942C15.3436 8.96379 15.5022 9.45043 15.5033 9.95014C15.5038 10.038 15.5328 10.1234 15.586 10.1934C15.6391 10.2635 15.7136 10.3144 15.7981 10.3385C15.8826 10.3626 15.9727 10.3587 16.0548 10.3272C16.1369 10.2958 16.2066 10.2386 16.2534 10.1642L16.3151 10.0629C16.3556 11.9304 16.517 13.8036 16.8113 15.6444C16.8402 15.8184 16.8307 15.9967 16.7833 16.1666C16.736 16.3365 16.652 16.494 16.5373 16.628ZM6.07319 9.91121V9.04272C6.07319 7.8077 6.8168 6.68944 7.93505 6.19235C9.40857 7.08075 11.097 7.54932 12.8176 7.54739H12.8184L13.1087 7.5555C13.5223 7.5555 13.905 7.66984 14.2448 7.85554C14.2448 7.86284 14.2407 7.86933 14.2407 7.87662V9.9104C14.2395 10.9931 13.8088 12.0311 13.0432 12.7966C12.2776 13.5622 11.2397 13.9929 10.157 13.9942C9.07428 13.9933 8.03618 13.5629 7.27053 12.7974C6.50489 12.0319 6.07426 10.9939 6.07319 9.91121ZM4.82113 17.0554C4.64507 17.0554 4.47111 17.0172 4.31126 16.9434C4.15141 16.8696 4.00949 16.7619 3.8953 16.6279C3.78111 16.4939 3.69737 16.3367 3.64987 16.1672C3.60237 15.9977 3.59223 15.8198 3.62017 15.646C3.96075 13.5198 4.13429 11.3498 4.13429 9.19598V6.9165C4.13429 3.56255 6.86221 0.834628 10.2162 0.834628C13.5701 0.834628 16.298 3.56255 16.298 6.9165C16.298 7.52225 16.2113 8.11341 16.0458 8.66646C15.7973 8.09663 15.3884 7.61143 14.8689 7.27002C14.3493 6.92862 13.7417 6.74577 13.1201 6.74377L12.8297 6.73566C10.98 6.73566 9.21306 6.16316 7.72178 5.0814C7.68407 5.04166 7.63859 5.0101 7.58817 4.98867C7.53776 4.96725 7.48347 4.95641 7.42869 4.95684C7.37391 4.95726 7.3198 4.96895 7.26973 4.99116C7.21965 5.01337 7.17467 5.04563 7.13758 5.08595C7.10049 5.12627 7.07209 5.17378 7.05413 5.22553C7.03616 5.27729 7.02903 5.33218 7.03317 5.38681C7.03731 5.44143 7.05263 5.49462 7.07818 5.54308C7.10373 5.59154 7.13897 5.63423 7.18171 5.6685C6.59874 6.01833 6.11583 6.51257 5.7796 7.10349C5.44338 7.69441 5.2652 8.36204 5.26227 9.04191V9.9104C5.26297 10.6913 5.45071 11.4606 5.80977 12.154C6.16883 12.8475 6.68876 13.4448 7.32605 13.8961V16.0182L5.66368 17.0546L4.82113 17.0554ZM10.1667 18.6772C9.55238 18.6749 8.9451 18.5463 8.38252 18.2996C7.81994 18.0528 7.31407 17.6931 6.89627 17.2427L7.9464 16.5883C8.00384 16.5514 8.05089 16.5005 8.08311 16.4403C8.11533 16.3801 8.13163 16.3127 8.13048 16.2445H8.13778V14.364C8.75408 14.6445 9.43687 14.8051 10.157 14.8051C10.8835 14.8051 11.5712 14.6413 12.1924 14.3567V16.2445H12.1997C12.1997 16.3799 12.2605 16.5121 12.3837 16.5883L13.4371 17.2443C13.019 17.6942 12.5131 18.0535 11.9505 18.3C11.388 18.5464 10.7809 18.6748 10.1667 18.6772Z" fill="#2D3561"/>
<path d="M17.7934 19.0024L15.9153 17.8331C16.397 17.7634 16.8373 17.5221 17.1552 17.1535C17.3458 16.9304 17.4855 16.6684 17.5646 16.3858C17.6438 16.1032 17.6604 15.8067 17.6133 15.5171C17.278 13.4267 17.1094 11.3131 17.1089 9.19598V6.91812V6.9165C17.1089 3.11574 14.0169 0.0237122 10.2162 0.0237122C6.4154 0.0237122 3.32337 3.11574 3.32337 6.9165V9.19598C3.32337 11.3068 3.15389 13.4338 2.81898 15.5171C2.77239 15.8067 2.78922 16.1031 2.86832 16.3856C2.94743 16.6681 3.08691 16.9301 3.27715 17.1535C3.57719 17.5054 3.98508 17.7357 4.43027 17.8233L2.5384 19.0024C2.01119 19.3288 1.57637 19.7848 1.27542 20.3269C0.974475 20.869 0.817428 21.4792 0.81926 22.0993V25.57C0.81926 25.6775 0.861978 25.7807 0.938017 25.8567C1.01405 25.9327 1.11718 25.9755 1.22472 25.9755C1.33225 25.9755 1.43538 25.9327 1.51142 25.8567C1.58746 25.7807 1.63018 25.6775 1.63018 25.57V22.0993C1.63018 21.1132 2.1297 20.2123 2.96738 19.6909L6.2005 17.6757C6.69494 18.242 7.30429 18.6965 7.98801 19.009C8.67172 19.3215 9.41414 19.4848 10.1659 19.4881C10.9173 19.4848 11.6595 19.3215 12.343 19.0093C13.0266 18.6971 13.6359 18.2431 14.1305 17.6774L17.3636 19.6909C17.774 19.9446 18.1124 20.2993 18.3467 20.721C18.5809 21.1428 18.7031 21.6176 18.7016 22.1001V25.57C18.7016 25.6775 18.7443 25.7807 18.8203 25.8567C18.8964 25.9327 18.9995 25.9755 19.107 25.9755C19.2146 25.9755 19.3177 25.9327 19.3938 25.8567C19.4698 25.7807 19.5125 25.6775 19.5125 25.57V22.1001C19.5148 21.4798 19.3579 20.8694 19.057 20.327C18.756 19.7847 18.3209 19.3286 17.7934 19.0024ZM16.5373 16.628C16.4232 16.7622 16.2812 16.87 16.1213 16.9438C15.9614 17.0176 15.7873 17.0556 15.6112 17.0554H14.6657L13.0017 16.019V13.8847C13.6347 13.4331 14.1509 12.8369 14.5071 12.1456C14.8634 11.4544 15.0495 10.6881 15.05 9.9104V8.55942C15.3436 8.96379 15.5022 9.45043 15.5033 9.95014C15.5038 10.038 15.5328 10.1234 15.586 10.1934C15.6391 10.2635 15.7136 10.3144 15.7981 10.3385C15.8826 10.3626 15.9727 10.3587 16.0548 10.3272C16.1369 10.2958 16.2066 10.2386 16.2534 10.1642L16.3151 10.0629C16.3556 11.9304 16.517 13.8036 16.8113 15.6444C16.8402 15.8184 16.8307 15.9967 16.7833 16.1666C16.736 16.3365 16.652 16.494 16.5373 16.628ZM6.07319 9.91121V9.04272C6.07319 7.8077 6.8168 6.68944 7.93505 6.19235C9.40857 7.08075 11.097 7.54932 12.8176 7.54739H12.8184L13.1087 7.5555C13.5223 7.5555 13.905 7.66984 14.2448 7.85554C14.2448 7.86284 14.2407 7.86933 14.2407 7.87662V9.9104C14.2395 10.9931 13.8088 12.0311 13.0432 12.7966C12.2776 13.5622 11.2397 13.9929 10.157 13.9942C9.07428 13.9933 8.03618 13.5629 7.27053 12.7974C6.50489 12.0319 6.07426 10.9939 6.07319 9.91121ZM4.82113 17.0554C4.64507 17.0554 4.47111 17.0172 4.31126 16.9434C4.15141 16.8696 4.00949 16.7619 3.8953 16.6279C3.78111 16.4939 3.69737 16.3367 3.64987 16.1672C3.60237 15.9977 3.59223 15.8198 3.62017 15.646C3.96075 13.5198 4.13429 11.3498 4.13429 9.19598V6.9165C4.13429 3.56255 6.86221 0.834628 10.2162 0.834628C13.5701 0.834628 16.298 3.56255 16.298 6.9165C16.298 7.52225 16.2113 8.11341 16.0458 8.66646C15.7973 8.09663 15.3884 7.61143 14.8689 7.27002C14.3493 6.92862 13.7417 6.74577 13.1201 6.74377L12.8297 6.73566C10.98 6.73566 9.21306 6.16316 7.72178 5.0814C7.68407 5.04166 7.63859 5.0101 7.58817 4.98867C7.53776 4.96725 7.48347 4.95641 7.42869 4.95684C7.37391 4.95726 7.3198 4.96895 7.26973 4.99116C7.21965 5.01337 7.17467 5.04563 7.13758 5.08595C7.10049 5.12627 7.07209 5.17378 7.05413 5.22553C7.03616 5.27729 7.02903 5.33218 7.03317 5.38681C7.03731 5.44143 7.05263 5.49462 7.07818 5.54308C7.10373 5.59154 7.13897 5.63423 7.18171 5.6685C6.59874 6.01833 6.11583 6.51257 5.7796 7.10349C5.44338 7.69441 5.2652 8.36204 5.26227 9.04191V9.9104C5.26297 10.6913 5.45071 11.4606 5.80977 12.154C6.16883 12.8475 6.68876 13.4448 7.32605 13.8961V16.0182L5.66368 17.0546L4.82113 17.0554ZM10.1667 18.6772C9.55238 18.6749 8.9451 18.5463 8.38252 18.2996C7.81994 18.0528 7.31407 17.6931 6.89627 17.2427L7.9464 16.5883C8.00384 16.5514 8.05089 16.5005 8.08311 16.4403C8.11533 16.3801 8.13163 16.3127 8.13048 16.2445H8.13778V14.364C8.75408 14.6445 9.43687 14.8051 10.157 14.8051C10.8835 14.8051 11.5712 14.6413 12.1924 14.3567V16.2445H12.1997C12.1997 16.3799 12.2605 16.5121 12.3837 16.5883L13.4371 17.2443C13.019 17.6942 12.5131 18.0535 11.9505 18.3C11.388 18.5464 10.7809 18.6748 10.1667 18.6772Z" stroke="#2A3547" stroke-width="0.4" mask="url(#path-1-outside-1_31_30)"/>
<path d="M3.83526 21.4525C3.78134 21.5017 3.73764 21.561 3.70666 21.6271C3.67566 21.6932 3.65801 21.7648 3.65471 21.8378C3.6514 21.9107 3.66252 21.9836 3.68742 22.0523C3.71231 22.1209 3.7505 22.184 3.7998 22.2378L3.79989 22.238C4.14798 22.6177 4.34083 23.1142 4.34027 23.6293V23.6295V25.57C4.34027 25.7173 4.39879 25.8586 4.50296 25.9628C4.60713 26.0669 4.74841 26.1255 4.89573 26.1255C5.04304 26.1255 5.18433 26.0669 5.2885 25.9628C5.39266 25.8586 5.45118 25.7173 5.45118 25.57V23.6295C5.45118 22.8346 5.15575 22.0744 4.61969 21.4873L4.61948 21.487C4.51999 21.3785 4.3815 21.314 4.23445 21.3075C4.08743 21.3011 3.94386 21.3532 3.83526 21.4525ZM3.83526 21.4525C3.83523 21.4525 3.8352 21.4526 3.83517 21.4526L3.93641 21.5633L3.83535 21.4524C3.83532 21.4525 3.83529 21.4525 3.83526 21.4525ZM3.91046 22.1366C4.28395 22.544 4.49087 23.0768 4.49027 23.6295L3.91046 22.1366ZM15.8839 21.3556C15.8181 21.3884 15.7594 21.434 15.7113 21.4897L15.8236 21.5892C15.3141 22.1465 15.0317 22.8744 15.0322 23.6295H14.8822V23.6296V25.57C14.8822 25.7173 14.9407 25.8586 15.0449 25.9628C15.149 26.0669 15.2903 26.1255 15.4376 26.1255C15.585 26.1255 15.7262 26.0669 15.8304 25.9628C15.9346 25.8586 15.9931 25.7173 15.9931 25.57V23.6295C15.9931 23.1139 16.1845 22.6202 16.5314 22.2385C16.5825 22.1856 16.6226 22.1231 16.6493 22.0546C16.6764 21.9852 16.6892 21.9111 16.6871 21.8366C16.6849 21.7622 16.6678 21.6889 16.6368 21.6212C16.6058 21.5535 16.5614 21.4927 16.5064 21.4425L16.5064 21.4425C16.4514 21.3923 16.3869 21.3536 16.3167 21.3289C16.2464 21.3041 16.1719 21.2937 16.0976 21.2983C16.0232 21.3029 15.9506 21.3224 15.8839 21.3556Z" fill="#0C0C0C" stroke="black" stroke-width="0.3"/>
</g>
<defs>
<clipPath id="clip0_31_30">
<rect width="19.9333" height="26" fill="white" transform="translate(0.200012)"/>
</clipPath>
</defs>
</svg>
